<?xml version="1.0" encoding="UTF-8"?>
<svg xmlns="http://www.w3.org/2000/svg" version="1.1" width="720" height="320" viewBox="0 0 720 320" font-family="system-ui, -apple-system, sans-serif" role="img" aria-label="Four weeks in a calendar"><title>Four weeks in a calendar</title><desc>Daily commits from Monday June 1 across four weeks. Chart data. Commits: 1 0, 2 5, 3 10, 4 4, 5 9, 6 3, 7 8, 8 2, 9 7, 10 1, 11 6, 12 0, 13 5, 14 10, 15 4, 16 9, 17 3, 18 8, 19 2, 20 7, 21 1, 22 6, 23 0, 24 5, 25 10, 26 4, 27 9, 28 3.</desc><rect x="0" y="0" width="720" height="320" rx="0" fill="#010205"/><text x="28" y="36" fill="#e5e8ed" font-size="18" font-weight="600" text-anchor="start">Four weeks in a calendar</text><g fill="#b8bec8" font-size="9.5" font-weight="500" text-anchor="end"><text x="324" y="92">Mon</text><text x="324" y="116">Tue</text><text x="324" y="140">Wed</text><text x="324" y="164">Thu</text><text x="324" y="188">Fri</text><text x="324" y="212">Sat</text><text x="324" y="236">Sun</text></g><rect x="334" y="78" width="20" height="20" rx="3" fill="#1b1f26" fill-opacity="1"/><text x="334" y="67" fill="#b8bec8" font-size="9" font-weight="500" text-anchor="start">1</text><rect x="334" y="102" width="20" height="20" rx="3" fill="#48c5ff" fill-opacity="0.61"/><rect x="334" y="126" width="20" height="20" rx="3" fill="#48c5ff" fill-opacity="1"/><rect x="334" y="150" width="20" height="20" rx="3" fill="#48c5ff" fill-opacity="0.53"/><rect x="334" y="174" width="20" height="20" rx="3" fill="#48c5ff" fill-opacity="0.92"/><rect x="334" y="198" width="20" height="20" rx="3" fill="#48c5ff" fill-opacity="0.45"/><rect x="334" y="222" width="20" height="20" rx="3" fill="#48c5ff" fill-opacity="0.84"/><rect x="358" y="78" width="20" height="20" rx="3" fill="#48c5ff" fill-opacity="0.38"/><text x="358" y="67" fill="#b8bec8" font-size="9" font-weight="500" text-anchor="start">8</text><rect x="358" y="102" width="20" height="20" rx="3" fill="#48c5ff" fill-opacity="0.77"/><rect x="358" y="126" width="20" height="20" rx="3" fill="#48c5ff" fill-opacity="0.3"/><rect x="358" y="150" width="20" height="20" rx="3" fill="#48c5ff" fill-opacity="0.69"/><rect x="358" y="174" width="20" height="20" rx="3" fill="#1b1f26" fill-opacity="1"/><rect x="358" y="198" width="20" height="20" rx="3" fill="#48c5ff" fill-opacity="0.61"/><rect x="358" y="222" width="20" height="20" rx="3" fill="#48c5ff" fill-opacity="1"/><rect x="382" y="78" width="20" height="20" rx="3" fill="#48c5ff" fill-opacity="0.53"/><text x="382" y="67" fill="#b8bec8" font-size="9" font-weight="500" text-anchor="start">15</text><rect x="382" y="102" width="20" height="20" rx="3" fill="#48c5ff" fill-opacity="0.92"/><rect x="382" y="126" width="20" height="20" rx="3" fill="#48c5ff" fill-opacity="0.45"/><rect x="382" y="150" width="20" height="20" rx="3" fill="#48c5ff" fill-opacity="0.84"/><rect x="382" y="174" width="20" height="20" rx="3" fill="#48c5ff" fill-opacity="0.38"/><rect x="382" y="198" width="20" height="20" rx="3" fill="#48c5ff" fill-opacity="0.77"/><rect x="382" y="222" width="20" height="20" rx="3" fill="#48c5ff" fill-opacity="0.3"/><rect x="406" y="78" width="20" height="20" rx="3" fill="#48c5ff" fill-opacity="0.69"/><text x="406" y="67" fill="#b8bec8" font-size="9" font-weight="500" text-anchor="start">22</text><rect x="406" y="102" width="20" height="20" rx="3" fill="#1b1f26" fill-opacity="1"/><rect x="406" y="126" width="20" height="20" rx="3" fill="#48c5ff" fill-opacity="0.61"/><rect x="406" y="150" width="20" height="20" rx="3" fill="#48c5ff" fill-opacity="1"/><rect x="406" y="174" width="20" height="20" rx="3" fill="#48c5ff" fill-opacity="0.53"/><rect x="406" y="198" width="20" height="20" rx="3" fill="#48c5ff" fill-opacity="0.92"/><rect x="406" y="222" width="20" height="20" rx="3" fill="#48c5ff" fill-opacity="0.45"/><text x="562" y="303" fill="#b8bec8" font-size="9" font-weight="500" text-anchor="end">Less</text><rect x="570" y="292" width="13" height="13" rx="2.5" fill="#1b1f26" fill-opacity="1"/><rect x="587" y="292" width="13" height="13" rx="2.5" fill="#48c5ff" fill-opacity="0.48"/><rect x="604" y="292" width="13" height="13" rx="2.5" fill="#48c5ff" fill-opacity="0.74"/><rect x="621" y="292" width="13" height="13" rx="2.5" fill="#48c5ff" fill-opacity="1"/><text x="642" y="303" fill="#b8bec8" font-size="9" font-weight="500" text-anchor="start">More</text></svg>
