<?xml version="1.0" encoding="UTF-8"?>
<svg xmlns="http://www.w3.org/2000/svg" version="1.1" width="720" height="420" viewBox="0 0 720 420" font-family="system-ui, -apple-system, sans-serif" role="img" aria-label="Positive and negative values"><title>Positive and negative values</title><desc>A fixed -30 to 50 domain puts gains above zero and losses below it. Chart data. Net change: Jan 32, Feb -18, Mar 44, Apr -12, May 26.</desc><rect x="0" y="0" width="720" height="420" rx="0" fill="#010205"/><text x="62" y="34" fill="#e5e8ed" font-size="18" font-weight="600" text-anchor="start">Positive and negative values</text><line x1="62" y1="366" x2="694" y2="366" stroke="#1b1f26" stroke-width="1"/><text x="51" y="370" fill="#b8bec8" font-size="10.5" font-weight="400" text-anchor="end">-30</text><line x1="62" y1="328.25" x2="694" y2="328.25" stroke="#1b1f26" stroke-width="1"/><text x="51" y="332.25" fill="#b8bec8" font-size="10.5" font-weight="400" text-anchor="end">-20</text><line x1="62" y1="252.75" x2="694" y2="252.75" stroke="#303338" stroke-width="1.25"/><text x="51" y="256.75" fill="#b8bec8" font-size="10.5" font-weight="400" text-anchor="end">0</text><line x1="62" y1="177.25" x2="694" y2="177.25" stroke="#1b1f26" stroke-width="1"/><text x="51" y="181.25" fill="#b8bec8" font-size="10.5" font-weight="400" text-anchor="end">20</text><line x1="62" y1="101.75" x2="694" y2="101.75" stroke="#1b1f26" stroke-width="1"/><text x="51" y="105.75" fill="#b8bec8" font-size="10.5" font-weight="400" text-anchor="end">40</text><line x1="62" y1="64" x2="694" y2="64" stroke="#1b1f26" stroke-width="1"/><text x="51" y="68" fill="#b8bec8" font-size="10.5" font-weight="400" text-anchor="end">50</text><g fill="#b8bec8" font-size="11" font-weight="500" text-anchor="middle"><text x="125.2" y="394">Jan</text><text x="251.6" y="394">Feb</text><text x="378" y="394">Mar</text><text x="504.4" y="394">Apr</text><text x="630.8" y="394">May</text></g><rect x="79.7" y="131.95" width="91.01" height="120.8" rx="4" fill="#48c5ff"/><text x="125.2" y="123.95" fill="#e5e8ed" font-size="10.5" font-weight="600" text-anchor="middle">32</text><rect x="206.1" y="252.75" width="91.01" height="67.95" rx="4" fill="#48c5ff"/><text x="251.6" y="335.7" fill="#e5e8ed" font-size="10.5" font-weight="600" text-anchor="middle">-18</text><rect x="332.5" y="86.65" width="91.01" height="166.1" rx="4" fill="#48c5ff"/><text x="378" y="78.65" fill="#e5e8ed" font-size="10.5" font-weight="600" text-anchor="middle">44</text><rect x="458.9" y="252.75" width="91.01" height="45.3" rx="4" fill="#48c5ff"/><text x="504.4" y="313.05" fill="#e5e8ed" font-size="10.5" font-weight="600" text-anchor="middle">-12</text><rect x="585.3" y="154.6" width="91.01" height="98.15" rx="4" fill="#48c5ff"/><text x="630.8" y="146.6" fill="#e5e8ed" font-size="10.5" font-weight="600" text-anchor="middle">26</text></svg>
