<?xml version="1.0" encoding="UTF-8"?>
<svg xmlns="http://www.w3.org/2000/svg" version="1.1" width="720" height="420" viewBox="0 0 720 420" font-family="Inter, ui-sans-serif, system-ui, sans-serif" role="img" aria-label="Five parts of a total"><title>Five parts of a total</title><desc>Five spending categories surround the total, using the warm theme palette. Chart data. People: 46; Hosting: 22; Sales: 16; Support: 10; Other: 6.</desc><rect x="0" y="0" width="720" height="420" rx="0" fill="#fffaf4"/><text x="26" y="34" fill="#352a24" font-size="18" font-weight="600" text-anchor="start">Five parts of a total</text><path d="M 223.2 88.4 A 147.6 147.6 0 0 1 259.91 378.96 L 244.49 318.92 A 85.61 85.61 0 0 0 223.2 150.39 Z" fill="#d46345" stroke="#fffaf4" stroke-width="2" stroke-linejoin="round"/><rect x="417.6" y="169" width="12" height="4" rx="2" fill="#d46345"/><text x="436.6" y="176" fill="#352a24" font-size="11" font-weight="600" text-anchor="start">People</text><text x="593.6" y="176" fill="#786a61" font-size="10.5" font-weight="500" text-anchor="end">46%</text><path d="M 259.91 378.96 A 147.6 147.6 0 0 1 89.65 298.85 L 145.74 272.45 A 85.61 85.61 0 0 0 244.49 318.92 Z" fill="#2f7d77" stroke="#fffaf4" stroke-width="2" stroke-linejoin="round"/><rect x="417.6" y="199" width="12" height="4" rx="2" fill="#2f7d77"/><text x="436.6" y="206" fill="#352a24" font-size="11" font-weight="600" text-anchor="start">Hosting</text><text x="593.6" y="206" fill="#786a61" font-size="10.5" font-weight="500" text-anchor="end">22%</text><path d="M 89.65 298.85 A 147.6 147.6 0 0 1 98.58 156.91 L 150.92 190.13 A 85.61 85.61 0 0 0 145.74 272.45 Z" fill="#d19a2c" stroke="#fffaf4" stroke-width="2" stroke-linejoin="round"/><rect x="417.6" y="229" width="12" height="4" rx="2" fill="#d19a2c"/><text x="436.6" y="236" fill="#352a24" font-size="11" font-weight="600" text-anchor="start">Sales</text><text x="593.6" y="236" fill="#786a61" font-size="10.5" font-weight="500" text-anchor="end">16%</text><path d="M 98.58 156.91 A 147.6 147.6 0 0 1 168.86 98.76 L 191.69 156.4 A 85.61 85.61 0 0 0 150.92 190.13 Z" fill="#755f9f" stroke="#fffaf4" stroke-width="2" stroke-linejoin="round"/><rect x="417.6" y="259" width="12" height="4" rx="2" fill="#755f9f"/><text x="436.6" y="266" fill="#352a24" font-size="11" font-weight="600" text-anchor="start">Support</text><text x="593.6" y="266" fill="#786a61" font-size="10.5" font-weight="500" text-anchor="end">10%</text><path d="M 168.86 98.76 A 147.6 147.6 0 0 1 223.2 88.4 L 223.2 150.39 A 85.61 85.61 0 0 0 191.69 156.4 Z" fill="#b94b68" stroke="#fffaf4" stroke-width="2" stroke-linejoin="round"/><rect x="417.6" y="289" width="12" height="4" rx="2" fill="#b94b68"/><text x="436.6" y="296" fill="#352a24" font-size="11" font-weight="600" text-anchor="start">Other</text><text x="593.6" y="296" fill="#786a61" font-size="10.5" font-weight="500" text-anchor="end">6%</text><text x="223.2" y="234" fill="#352a24" font-size="25" font-weight="650" text-anchor="middle">100</text><text x="223.2" y="252" fill="#786a61" font-size="10" font-weight="500" text-anchor="middle">total</text></svg>
