<?xml version="1.0" encoding="UTF-8"?>
<svg xmlns="http://www.w3.org/2000/svg" version="1.1" width="720" height="420" viewBox="0 0 720 420" font-family="system-ui, -apple-system, sans-serif" role="img" aria-label="A thicker ring"><title>A thicker ring</title><desc>PieChartBuilder(0.35) leaves a smaller hole than the default donut ratio of 0.58. Chart data. Direct: 42; Search: 31; Referral: 18; Social: 9.</desc><rect x="0" y="0" width="720" height="420" rx="0" fill="#010205"/><text x="26" y="34" fill="#e5e8ed" font-size="18" font-weight="600" text-anchor="start">A thicker ring</text><path d="M 223.2 88.4 A 147.6 147.6 0 0 1 294.31 365.34 L 248.09 281.27 A 51.66 51.66 0 0 0 223.2 184.34 Z" fill="#48c5ff" stroke="#010205" stroke-width="2" stroke-linejoin="round"/><rect x="417.6" y="184" width="12" height="4" rx="2" fill="#48c5ff"/><text x="436.6" y="191" fill="#e5e8ed" font-size="11" font-weight="600" text-anchor="start">Direct</text><text x="593.6" y="191" fill="#b8bec8" font-size="10.5" font-weight="500" text-anchor="end">42%</text><path d="M 294.31 365.34 A 147.6 147.6 0 0 1 76.76 254.5 L 171.95 242.47 A 51.66 51.66 0 0 0 248.09 281.27 Z" fill="#a58fff" stroke="#010205" stroke-width="2" stroke-linejoin="round"/><rect x="417.6" y="214" width="12" height="4" rx="2" fill="#a58fff"/><text x="436.6" y="221" fill="#e5e8ed" font-size="11" font-weight="600" text-anchor="start">Search</text><text x="593.6" y="221" fill="#b8bec8" font-size="10.5" font-weight="500" text-anchor="end">31%</text><path d="M 76.76 254.5 A 147.6 147.6 0 0 1 144.11 111.38 L 195.52 192.38 A 51.66 51.66 0 0 0 171.95 242.47 Z" fill="#f4a34b" stroke="#010205" stroke-width="2" stroke-linejoin="round"/><rect x="417.6" y="244" width="12" height="4" rx="2" fill="#f4a34b"/><text x="436.6" y="251" fill="#e5e8ed" font-size="11" font-weight="600" text-anchor="start">Referral</text><text x="593.6" y="251" fill="#b8bec8" font-size="10.5" font-weight="500" text-anchor="end">18%</text><path d="M 144.11 111.38 A 147.6 147.6 0 0 1 223.2 88.4 L 223.2 184.34 A 51.66 51.66 0 0 0 195.52 192.38 Z" fill="#06bfa8" stroke="#010205" stroke-width="2" stroke-linejoin="round"/><rect x="417.6" y="274" width="12" height="4" rx="2" fill="#06bfa8"/><text x="436.6" y="281" fill="#e5e8ed" font-size="11" font-weight="600" text-anchor="start">Social</text><text x="593.6" y="281" fill="#b8bec8" font-size="10.5" font-weight="500" text-anchor="end">9%</text><text x="223.2" y="234" fill="#e5e8ed" font-size="25" font-weight="650" text-anchor="middle">100</text><text x="223.2" y="252" fill="#b8bec8" font-size="10" font-weight="500" text-anchor="middle">total</text></svg>
