<?xml version="1.0" encoding="UTF-8"?>
<svg xmlns="http://www.w3.org/2000/svg" version="1.1" width="720" height="420" viewBox="0 0 720 420" font-family="system-ui, -apple-system, sans-serif" role="img" aria-label="One point series"><title>One point series</title><desc>A single series plots study hours against scores, with explicit axis labels. Chart data. Students: x 2, y 48, size 1, x 4, y 61, size 1, x 5, y 58, size 1, x 7, y 79, size 1, x 9, y 91, size 1.</desc><rect x="0" y="0" width="720" height="420" rx="0" fill="#010205"/><text x="62" y="34" fill="#e5e8ed" font-size="18" font-weight="600" text-anchor="start">One point series</text><line x1="62" y1="366" x2="694" y2="366" stroke="#1b1f26" stroke-width="1"/><text x="51" y="370" fill="#b8bec8" font-size="10.5" font-weight="400" text-anchor="end">40</text><line x1="62" y1="265.33" x2="694" y2="265.33" stroke="#1b1f26" stroke-width="1"/><text x="51" y="269.33" fill="#b8bec8" font-size="10.5" font-weight="400" text-anchor="end">60</text><line x1="62" y1="164.67" x2="694" y2="164.67" stroke="#1b1f26" stroke-width="1"/><text x="51" y="168.67" fill="#b8bec8" font-size="10.5" font-weight="400" text-anchor="end">80</text><line x1="62" y1="64" x2="694" y2="64" stroke="#1b1f26" stroke-width="1"/><text x="51" y="68" fill="#b8bec8" font-size="10.5" font-weight="400" text-anchor="end">100</text><line x1="62" y1="64" x2="62" y2="366" stroke="#1b1f26" stroke-width="1"/><text x="62" y="390" fill="#b8bec8" font-size="10.5" font-weight="400" text-anchor="middle">2</text><line x1="220" y1="64" x2="220" y2="366" stroke="#1b1f26" stroke-width="1"/><text x="220" y="390" fill="#b8bec8" font-size="10.5" font-weight="400" text-anchor="middle">4</text><line x1="378" y1="64" x2="378" y2="366" stroke="#1b1f26" stroke-width="1"/><text x="378" y="390" fill="#b8bec8" font-size="10.5" font-weight="400" text-anchor="middle">6</text><line x1="536" y1="64" x2="536" y2="366" stroke="#1b1f26" stroke-width="1"/><text x="536" y="390" fill="#b8bec8" font-size="10.5" font-weight="400" text-anchor="middle">8</text><line x1="694" y1="64" x2="694" y2="366" stroke="#1b1f26" stroke-width="1"/><text x="694" y="390" fill="#b8bec8" font-size="10.5" font-weight="400" text-anchor="middle">10</text><text x="62" y="54" fill="#b8bec8" font-size="10.5" font-weight="600" text-anchor="start">Score</text><text x="694" y="412" fill="#b8bec8" font-size="10.5" font-weight="600" text-anchor="end">Study hours</text><circle cx="62" cy="325.73" r="5.5" fill="#48c5ff" fill-opacity="0.9" stroke="#010205" stroke-width="2.5"/><circle cx="220" cy="260.3" r="5.5" fill="#48c5ff" fill-opacity="0.9" stroke="#010205" stroke-width="2.5"/><circle cx="299" cy="275.4" r="5.5" fill="#48c5ff" fill-opacity="0.9" stroke="#010205" stroke-width="2.5"/><circle cx="457" cy="169.7" r="5.5" fill="#48c5ff" fill-opacity="0.9" stroke="#010205" stroke-width="2.5"/><circle cx="615" cy="109.3" r="5.5" fill="#48c5ff" fill-opacity="0.9" stroke="#010205" stroke-width="2.5"/></svg>
