<?xml version="1.0" encoding="UTF-8"?>
<svg xmlns="http://www.w3.org/2000/svg" version="1.1" width="720" height="420" viewBox="0 0 720 420" font-family="system-ui, -apple-system, sans-serif" role="img" aria-label="Three components without labels"><title>Three components without labels</title><desc>showValues(false) leaves the colored segments and legend without numbers inside the bars. Chart data. Product: Jan 38, Feb 52, Mar 45, Apr 63; Services: Jan 24, Feb 18, Mar 32, Apr 22; Partners: Jan 11, Feb 17, Mar 9, Apr 23.</desc><rect x="0" y="0" width="720" height="420" rx="0" fill="#010205"/><text x="62" y="34" fill="#e5e8ed" font-size="18" font-weight="600" text-anchor="start">Three components without labels</text><rect x="62" y="52" width="14" height="4" rx="2" fill="#48c5ff"/><text x="83" y="61" fill="#b8bec8" font-size="11" font-weight="500" text-anchor="start">Product</text><rect x="142.5" y="52" width="14" height="4" rx="2" fill="#a58fff"/><text x="163.5" y="61" fill="#b8bec8" font-size="11" font-weight="500" text-anchor="start">Services</text><rect x="229.5" y="52" width="14" height="4" rx="2" fill="#f4a34b"/><text x="250.5" y="61" fill="#b8bec8" font-size="11" font-weight="500" text-anchor="start">Partners</text><line x1="62" y1="366" x2="694" y2="366" stroke="#303338" stroke-width="1.25"/><text x="51" y="370" fill="#b8bec8" font-size="10.5" font-weight="400" text-anchor="end">0</text><line x1="62" y1="272.67" x2="694" y2="272.67" stroke="#1b1f26" stroke-width="1"/><text x="51" y="276.67" fill="#b8bec8" font-size="10.5" font-weight="400" text-anchor="end">50</text><line x1="62" y1="179.33" x2="694" y2="179.33" stroke="#1b1f26" stroke-width="1"/><text x="51" y="183.33" fill="#b8bec8" font-size="10.5" font-weight="400" text-anchor="end">100</text><line x1="62" y1="86" x2="694" y2="86" stroke="#1b1f26" stroke-width="1"/><text x="51" y="90" fill="#b8bec8" font-size="10.5" font-weight="400" text-anchor="end">150</text><rect x="87.28" y="295.07" width="107.44" height="70.93" rx="0" fill="#48c5ff"/><rect x="87.28" y="250.27" width="107.44" height="44.8" rx="0" fill="#a58fff"/><rect x="87.28" y="229.73" width="107.44" height="20.53" rx="0" fill="#f4a34b"/><text x="141" y="394" fill="#b8bec8" font-size="11" font-weight="500" text-anchor="middle">Jan</text><rect x="245.28" y="268.93" width="107.44" height="97.07" rx="0" fill="#48c5ff"/><rect x="245.28" y="235.33" width="107.44" height="33.6" rx="0" fill="#a58fff"/><rect x="245.28" y="203.6" width="107.44" height="31.73" rx="0" fill="#f4a34b"/><text x="299" y="394" fill="#b8bec8" font-size="11" font-weight="500" text-anchor="middle">Feb</text><rect x="403.28" y="282" width="107.44" height="84" rx="0" fill="#48c5ff"/><rect x="403.28" y="222.27" width="107.44" height="59.73" rx="0" fill="#a58fff"/><rect x="403.28" y="205.47" width="107.44" height="16.8" rx="0" fill="#f4a34b"/><text x="457" y="394" fill="#b8bec8" font-size="11" font-weight="500" text-anchor="middle">Mar</text><rect x="561.28" y="248.4" width="107.44" height="117.6" rx="0" fill="#48c5ff"/><rect x="561.28" y="207.33" width="107.44" height="41.07" rx="0" fill="#a58fff"/><rect x="561.28" y="164.4" width="107.44" height="42.93" rx="0" fill="#f4a34b"/><text x="615" y="394" fill="#b8bec8" font-size="11" font-weight="500" text-anchor="middle">Apr</text></svg>
