<?xml version="1.0" encoding="UTF-8"?>
<svg xmlns="http://www.w3.org/2000/svg" version="1.1" width="720" height="420" viewBox="0 0 720 420" font-family="system-ui, -apple-system, sans-serif" role="img" aria-label="Roadmap allocation"><title>Roadmap allocation</title><desc>Work allocation by product area and delivery state. Chart data. Shipped: Platform 48, Studio 24, Docs 39; In progress: Platform 18, Studio 38, Docs 16; Planned: Platform 12, Studio 26, Docs 31.</desc><rect x="0" y="0" width="720" height="420" rx="0" fill="#010205"/><text x="108" y="34" fill="#e5e8ed" font-size="18" font-weight="600" text-anchor="start">Roadmap allocation</text><rect x="108" y="52" width="14" height="4" rx="2" fill="#48c5ff"/><text x="129" y="61" fill="#b8bec8" font-size="11" font-weight="500" text-anchor="start">Shipped</text><rect x="188.5" y="52" width="14" height="4" rx="2" fill="#a58fff"/><text x="209.5" y="61" fill="#b8bec8" font-size="11" font-weight="500" text-anchor="start">In progress</text><rect x="295" y="52" width="14" height="4" rx="2" fill="#f4a34b"/><text x="316" y="61" fill="#b8bec8" font-size="11" font-weight="500" text-anchor="start">Planned</text><line x1="108" y1="86" x2="108" y2="362" stroke="#303338" stroke-width="1.25"/><text x="108" y="394" fill="#b8bec8" font-size="10.5" font-weight="400" text-anchor="middle">0</text><line x1="399" y1="86" x2="399" y2="362" stroke="#1b1f26" stroke-width="1"/><text x="399" y="394" fill="#b8bec8" font-size="10.5" font-weight="400" text-anchor="middle">50</text><line x1="690" y1="86" x2="690" y2="362" stroke="#1b1f26" stroke-width="1"/><text x="690" y="394" fill="#b8bec8" font-size="10.5" font-weight="400" text-anchor="middle">100</text><text x="96" y="136" fill="#b8bec8" font-size="11" font-weight="500" text-anchor="end">Platform</text><rect x="108" y="103.48" width="279.36" height="57.04" rx="0" fill="#48c5ff"/><text x="247.68" y="136" fill="#010205" font-size="10" font-weight="600" text-anchor="middle">48</text><rect x="387.36" y="103.48" width="104.76" height="57.04" rx="0" fill="#a58fff"/><text x="439.74" y="136" fill="#010205" font-size="10" font-weight="600" text-anchor="middle">18</text><rect x="492.12" y="103.48" width="69.84" height="57.04" rx="0" fill="#f4a34b"/><text x="527.04" y="136" fill="#010205" font-size="10" font-weight="600" text-anchor="middle">12</text><text x="96" y="228" fill="#b8bec8" font-size="11" font-weight="500" text-anchor="end">Studio</text><rect x="108" y="195.48" width="139.68" height="57.04" rx="0" fill="#48c5ff"/><text x="177.84" y="228" fill="#010205" font-size="10" font-weight="600" text-anchor="middle">24</text><rect x="247.68" y="195.48" width="221.16" height="57.04" rx="0" fill="#a58fff"/><text x="358.26" y="228" fill="#010205" font-size="10" font-weight="600" text-anchor="middle">38</text><rect x="468.84" y="195.48" width="151.32" height="57.04" rx="0" fill="#f4a34b"/><text x="544.5" y="228" fill="#010205" font-size="10" font-weight="600" text-anchor="middle">26</text><text x="96" y="320" fill="#b8bec8" font-size="11" font-weight="500" text-anchor="end">Docs</text><rect x="108" y="287.48" width="226.98" height="57.04" rx="0" fill="#48c5ff"/><text x="221.49" y="320" fill="#010205" font-size="10" font-weight="600" text-anchor="middle">39</text><rect x="334.98" y="287.48" width="93.12" height="57.04" rx="0" fill="#a58fff"/><text x="381.54" y="320" fill="#010205" font-size="10" font-weight="600" text-anchor="middle">16</text><rect x="428.1" y="287.48" width="180.42" height="57.04" rx="0" fill="#f4a34b"/><text x="518.31" y="320" fill="#010205" font-size="10" font-weight="600" text-anchor="middle">31</text></svg>
